<svg width="50" height="50" viewBox="0 0 50 50" fill="none" xmlns="http://www.w3.org/2000/svg">
<rect width="50" height="50" rx="25" fill="#36393E"/>
<path fill-rule="evenodd" clip-rule="evenodd" d="M24.9994 12.75C26.2932 12.75 27.5213 13.0602 28.6088 13.6123C28.1315 14.09 27.7426 14.6558 27.4662 15.2822C26.7118 14.9404 25.8757 14.75 24.9994 14.75C21.9511 14.7502 19.3898 17.0425 19.0532 20.0723L18.7387 22.9053C18.688 23.3617 18.6579 23.6288 18.6127 23.8936C18.4544 24.822 18.152 25.7203 17.7153 26.5547C17.5907 26.7926 17.4515 27.0232 17.2153 27.417L16.4242 28.7354C16.004 29.4357 15.7499 29.8645 15.6196 30.1787C15.6175 30.1836 15.6156 30.1887 15.6137 30.1934C15.6192 30.1942 15.6255 30.1963 15.6313 30.1973C15.9677 30.2471 16.4655 30.25 17.2817 30.25H32.7172C33.5333 30.25 34.0312 30.247 34.3676 30.1973C34.373 30.1965 34.379 30.1942 34.3842 30.1934C34.3824 30.1887 34.3813 30.1835 34.3793 30.1787C34.249 29.8645 33.9949 29.4357 33.5746 28.7354L32.7836 27.417C32.5473 27.0232 32.4082 26.7927 32.2836 26.5547C31.8469 25.7203 31.5444 24.8219 31.3862 23.8936C31.341 23.6288 31.3109 23.3617 31.2602 22.9053L31.2543 22.8564C31.6547 22.9492 32.0719 23 32.5004 23C32.7644 23 33.0237 22.9793 33.2778 22.9434C33.3115 23.2438 33.3305 23.4028 33.3569 23.5576C33.48 24.2796 33.7165 24.978 34.0561 25.627C34.1475 25.8016 34.2507 25.9758 34.4985 26.3887L35.2895 27.7061C35.6749 28.3484 36.0252 28.9281 36.226 29.4121C36.4295 29.9028 36.5988 30.5732 36.2241 31.2354C35.8491 31.8974 35.187 32.0978 34.6616 32.1758C34.1433 32.2526 33.4661 32.25 32.7172 32.25H17.2817C16.5327 32.25 15.8556 32.2527 15.3373 32.1758C14.8119 32.0978 14.1497 31.8974 13.7748 31.2354C13.4002 30.5733 13.5694 29.9027 13.7729 29.4121C13.9736 28.9281 14.324 28.3484 14.7094 27.7061L15.5004 26.3887C15.7482 25.9758 15.8514 25.8016 15.9428 25.627C16.2825 24.978 16.5189 24.2797 16.642 23.5576C16.6751 23.3634 16.6973 23.1628 16.7504 22.6846L17.0658 19.8516C17.515 15.8089 20.932 12.7502 24.9994 12.75ZM31.017 15.4893C32.0536 16.6777 32.7473 18.18 32.933 19.8516L32.9448 19.958C32.8004 19.984 32.6522 20 32.5004 20C31.852 20 31.263 19.7506 30.8188 19.3457C30.6557 18.659 30.3761 18.0212 30.0024 17.4521C30.0175 16.6467 30.4126 15.9357 31.017 15.4893Z" fill="white"/>
<path d="M21.3778 32.0809C21.5914 33.2769 22.0622 34.3338 22.7171 35.0876C23.3721 35.8414 24.1745 36.25 25 36.25C25.8255 36.25 26.6279 35.8414 27.2829 35.0876C27.9378 34.3338 28.4086 33.2769 28.6222 32.0809" stroke="white" stroke-width="2" stroke-linecap="round"/>
<circle cx="32.5" cy="17.5" r="3" fill="#FDDB3A" stroke="#FDDB3A"/>
</svg>
