<svg width="53" height="53" viewBox="0 0 53 53" fill="none" xmlns="http://www.w3.org/2000/svg">
<circle cx="26.335" cy="26.335" r="26.335" fill="#030303"/>
<path d="M12.333 29.3868C11.0887 27.3131 11.0887 24.7224 12.333 22.6486C12.7127 22.0158 13.3417 21.5725 14.0654 21.4278L17.0199 20.8369C17.1959 20.8017 17.3545 20.7073 17.4695 20.5694L23.1882 13.7069C24.3707 12.2878 24.962 11.5783 25.4897 11.7694C26.0173 11.9604 26.0173 12.884 26.0173 14.7312L26.0173 37.3042C26.0173 39.1514 26.0173 40.075 25.4897 40.2661C24.962 40.4571 24.3707 39.7476 23.1882 38.3285L17.4695 31.4661C17.3545 31.3282 17.1959 31.2338 17.0199 31.1986L14.0654 30.6077C13.3417 30.463 12.7127 30.0197 12.333 29.3868Z" fill="white" stroke="white" stroke-width="3"/>
<path d="M31.7507 19.848C33.3786 21.4759 34.2972 23.6812 34.3063 25.9834C34.3153 28.2856 33.4142 30.4981 31.7991 32.1388" stroke="white" stroke-width="3.5" stroke-linecap="round"/>
<path d="M37.6342 16.146C40.2388 18.7507 41.7085 22.2792 41.7231 25.9627C41.7376 29.6462 40.2957 33.1862 37.7116 35.8113" stroke="white" stroke-width="3.5" stroke-linecap="round"/>
</svg>
