<svg width="117" height="48" viewBox="0 0 117 48" fill="none" xmlns="http://www.w3.org/2000/svg">
<path d="M105.303 16C100.141 16 95.6452 19.4008 94.1225 24.4617L93.9102 25.1643H97.5441L97.6775 24.8285C98.9454 21.6329 101.936 19.5625 105.297 19.5625C109.829 19.5625 113.517 23.3426 113.517 27.9869C113.517 32.6312 109.829 36.4113 105.297 36.4113C101.936 36.4113 98.9454 34.3472 97.6775 31.1453L97.5441 30.8095H93.9102L94.1225 31.5121C95.6452 36.573 100.141 39.9738 105.303 39.9738C111.752 39.9738 117 34.5959 117 27.9869C117 21.3779 111.752 16 105.303 16Z" fill="#41444B"/>
<path d="M105.513 34.4309C108.908 34.4309 111.672 31.6422 111.672 28.2154C111.672 24.7887 108.908 22 105.513 22C103.2 22 101.181 23.2939 100.127 25.2082H101.719C102.603 24.0738 103.973 23.3471 105.513 23.3471C108.177 23.3471 110.337 25.5331 110.337 28.2154C110.337 30.8978 108.171 33.0838 105.513 33.0838C103.973 33.0838 102.603 32.3512 101.719 31.2227H100.127C101.181 33.137 103.2 34.4309 105.513 34.4309Z" fill="#41444B"/>
<path d="M103.727 34.2871C103.708 34.1179 103.32 30.1539 105.638 27.8093C106.887 26.5464 108.647 26.0146 110.867 26.214L110.727 27.7186C108.98 27.5615 107.634 27.9422 106.717 28.8668C104.891 30.7098 105.231 34.0937 105.231 34.1239L103.727 34.2871Z" fill="#41444B"/>
<path d="M4.49084 9.71875H10.3502V21.4375H22.6158V9.71875H28.4752V38H22.6158V26.2617H10.3502V38H4.49084V9.71875ZM42.7721 38.4102C40.6367 38.4102 38.7747 37.9674 37.1862 37.082C35.6106 36.1966 34.3932 34.9336 33.5338 33.293C32.6875 31.6523 32.2643 29.7253 32.2643 27.5117C32.2643 25.3242 32.6875 23.4036 33.5338 21.75C34.3932 20.0833 35.5976 18.7943 37.1471 17.8828C38.6966 16.9714 40.4934 16.5156 42.5377 16.5156C44.4518 16.5156 46.1575 16.9193 47.6549 17.7266C49.1523 18.5208 50.3307 19.7253 51.1901 21.3398C52.0494 22.9544 52.4791 24.9271 52.4791 27.2578V28.8789H34.6276V25.2656H47.0299C47.0299 24.4062 46.8411 23.6445 46.4635 22.9805C46.0859 22.3034 45.5651 21.776 44.901 21.3984C44.2369 21.0208 43.4817 20.832 42.6354 20.832C41.7369 20.832 40.9362 21.0404 40.233 21.457C39.5299 21.8607 38.9765 22.4206 38.5729 23.1367C38.1823 23.8529 37.9804 24.6341 37.9674 25.4805V28.8789C37.9674 29.9336 38.1692 30.8581 38.5729 31.6523C38.9765 32.4466 39.5429 33.0521 40.2721 33.4688C41.0143 33.8854 41.8737 34.0938 42.8502 34.0938C43.5013 34.0938 44.0937 34.0026 44.6276 33.8203C45.1614 33.625 45.6106 33.3776 45.9752 33.0781C46.3528 32.7656 46.6393 32.401 46.8346 31.9844H52.3424C52.069 33.2734 51.5026 34.4062 50.6432 35.3828C49.7968 36.3464 48.6966 37.0951 47.3424 37.6289C46.0013 38.1497 44.4778 38.4102 42.7721 38.4102ZM68.5533 28.8398C68.0325 28.8529 67.1145 28.9049 65.7994 28.9961L63.9244 29.1523C62.8958 29.2305 62.0885 29.5104 61.5026 29.9922C60.9166 30.4609 60.6237 31.099 60.6237 31.9062C60.6237 32.4271 60.7539 32.8698 61.0143 33.2344C61.2877 33.599 61.6653 33.8789 62.1471 34.0742C62.6419 34.2695 63.1953 34.3672 63.8073 34.3672C64.6796 34.3672 65.4544 34.1979 66.1315 33.8594C66.8086 33.5078 67.3359 33.0326 67.7135 32.4336C68.0911 31.8216 68.2799 31.151 68.2799 30.4219L68.2408 23.5664C68.2408 22.9674 68.1106 22.4596 67.8502 22.043C67.6028 21.6133 67.2187 21.2943 66.6979 21.0859C66.1901 20.8646 65.5846 20.7539 64.8815 20.7539C63.9049 20.7539 63.1106 20.9622 62.4987 21.3789C61.8867 21.7826 61.5026 22.3555 61.3463 23.0977H55.8385C55.9687 21.8477 56.4049 20.7279 57.1471 19.7383C57.9023 18.7357 58.944 17.9479 60.2721 17.375C61.6132 16.8021 63.1953 16.5156 65.0182 16.5156C66.6588 16.5156 68.1562 16.7695 69.5104 17.2773C70.8645 17.7852 71.9518 18.5794 72.7721 19.6602C73.6054 20.7279 74.0221 22.0755 74.0221 23.7031V38H68.5338V35.0703H68.3776C68.026 35.7344 67.5638 36.3138 66.9908 36.8086C66.4179 37.3034 65.7278 37.694 64.9205 37.9805C64.1263 38.2539 63.2018 38.3906 62.1471 38.3906C60.7799 38.3906 59.569 38.1497 58.5143 37.668C57.4596 37.1862 56.6263 36.4701 56.0143 35.5195C55.4023 34.569 55.0963 33.4232 55.0963 32.082C55.0963 29.8685 55.8255 28.2604 57.2838 27.2578C58.7552 26.2552 60.6562 25.6823 62.9869 25.5391C63.3776 25.5 64.582 25.4349 66.6002 25.3438L68.5143 25.2656L68.5533 28.8398ZM78.4166 16.7891H84.0026V20.4805H84.2369C84.6145 19.1784 85.2591 18.1888 86.1705 17.5117C87.082 16.8216 88.1367 16.4766 89.3346 16.4766C89.9596 16.4766 90.5781 16.5417 91.1901 16.6719V21.8281C90.9427 21.737 90.5716 21.6654 90.0768 21.6133C89.582 21.5482 89.1263 21.5156 88.7096 21.5156C87.8502 21.5156 87.082 21.7044 86.4049 22.082C85.7278 22.4466 85.1875 22.9674 84.7838 23.6445C84.3932 24.3086 84.1979 25.0768 84.1979 25.9492V38H78.4166V16.7891Z" fill="#41444B"/>
</svg>
