<svg width="43" height="43" viewBox="0 0 43 43" fill="none" xmlns="http://www.w3.org/2000/svg">
<g clip-path="url(#clip0_1_370)">
<rect width="43" height="43" rx="21.5" fill="#D9D9D9"/>
<path d="M21.5003 28.6667C26.4479 28.6667 30.4587 24.6559 30.4587 19.7083C30.4587 14.7608 26.4479 10.75 21.5003 10.75C16.5528 10.75 12.542 14.7608 12.542 19.7083C12.542 24.6559 16.5528 28.6667 21.5003 28.6667Z" fill="#979797"/>
<path d="M35.8337 43C35.8337 39.1986 34.3235 35.5528 31.6355 32.8648C28.9475 30.1768 25.3018 28.6667 21.5003 28.6667C17.6989 28.6667 14.0531 30.1768 11.3651 32.8648C8.67711 35.5528 7.16699 39.1986 7.16699 43" fill="#979797"/>
<path d="M21.5003 28.6667C26.4479 28.6667 30.4587 24.6559 30.4587 19.7083C30.4587 14.7608 26.4479 10.75 21.5003 10.75C16.5528 10.75 12.542 14.7608 12.542 19.7083C12.542 24.6559 16.5528 28.6667 21.5003 28.6667ZM21.5003 28.6667C25.3018 28.6667 28.9475 30.1768 31.6355 32.8648C34.3235 35.5528 35.8337 39.1986 35.8337 43M21.5003 28.6667C17.6989 28.6667 14.0531 30.1768 11.3651 32.8648C8.67711 35.5528 7.16699 39.1986 7.16699 43" stroke="#979797" stroke-width="2" stroke-linecap="round" stroke-linejoin="round"/>
</g>
<defs>
<clipPath id="clip0_1_370">
<rect width="43" height="43" rx="21.5" fill="white"/>
</clipPath>
</defs>
</svg>
